<?xml version="1.0" encoding="utf-8"?>
<!-- Generator: Adobe Illustrator 16.0.4, SVG Export Plug-In . SVG Version: 6.00 Build 0)  -->
<!DOCTYPE svg PUBLIC "-//W3C//DTD SVG 1.1//EN" "http://www.w3.org/Graphics/SVG/1.1/DTD/svg11.dtd">
<svg version="1.1" id="Layer_1" xmlns="http://www.w3.org/2000/svg" xmlns:xlink="http://www.w3.org/1999/xlink" x="0px" y="0px"
	 width="64px" height="64px" viewBox="0 0 64 64" enable-background="new 0 0 64 64" xml:space="preserve">
<g>
	<path fill="#999999" d="M62.338,52.787L44.452,34.904c1.708-3.192,2.68-6.839,2.68-10.713c0-12.562-10.183-22.744-22.743-22.744
		S1.645,11.63,1.645,24.191c0,12.559,10.183,22.743,22.744,22.743c3.822,0,7.421-0.947,10.583-2.612l17.916,17.917L62.338,52.787z
		 M9.23,24.191c0-8.358,6.8-15.159,15.159-15.159s15.158,6.8,15.158,15.159S32.748,39.35,24.389,39.35S9.23,32.55,9.23,24.191z"/>
</g>
</svg>
