<?xml version="1.0" encoding="utf-8"?>
<!-- Generator: Adobe Illustrator 16.0.4, SVG Export Plug-In . SVG Version: 6.00 Build 0)  -->
<!DOCTYPE svg PUBLIC "-//W3C//DTD SVG 1.1//EN" "http://www.w3.org/Graphics/SVG/1.1/DTD/svg11.dtd">
<svg version="1.1" id="Layer_1" xmlns="http://www.w3.org/2000/svg" xmlns:xlink="http://www.w3.org/1999/xlink" x="0px" y="0px"
	 width="24px" height="24px" viewBox="0 0 24 24" enable-background="new 0 0 24 24" xml:space="preserve">
<g>
	<path fill="#999999" d="M22.236,12c0-1.495-0.323-2.913-0.898-4.193l-5.887,0.486l4.377,10.3C21.33,16.812,22.236,14.512,22.236,12
		z"/>
	<path fill="#999999" d="M18.84,19.614l-2.266-5.35l-8.291,7.272c1.152,0.45,2.405,0.699,3.716,0.699
		C14.63,22.236,17.027,21.243,18.84,19.614z"/>
	<path fill="#999999" d="M1.764,12c0,3.83,2.104,7.166,5.219,8.921l4.438-3.896l-9.635-5.656C1.772,11.577,1.764,11.788,1.764,12z"
		/>
	<path fill="#999999" d="M1.977,9.914l4.94,2.929L9.264,2.136C5.597,3.152,2.755,6.154,1.977,9.914z"/>
	<path fill="#999999" d="M12,1.764c-0.394,0-0.782,0.024-1.164,0.068L9.493,7.563l11.179-1C18.861,3.681,15.655,1.764,12,1.764z"/>
</g>
</svg>
