<?xml version="1.0" encoding="utf-8"?>
<!-- Generator: Adobe Illustrator 16.0.1, SVG Export Plug-In . SVG Version: 6.00 Build 0)  -->
<!DOCTYPE svg PUBLIC "-//W3C//DTD SVG 1.1//EN" "http://www.w3.org/Graphics/SVG/1.1/DTD/svg11.dtd">
<svg version="1.1" xmlns="http://www.w3.org/2000/svg" xmlns:xlink="http://www.w3.org/1999/xlink" x="0px" y="0px" width="540px"
	 height="540px" viewBox="0 0 540 540" enable-background="new 0 0 540 540" xml:space="preserve">
<g id="Guides" display="none">
</g>
<g id="Guides_2">
</g>
<g id="Airplane" display="none">
	
		<image display="inline" overflow="visible" width="2560" height="780" xlink:href="CF3490953B731B80.jpg"  transform="matrix(0.8828 0 0 0.8828 -1039.7109 61.0493)">
	</image>
	<path display="inline" fill="#B5ACA5" d="M70.124,275.417c0,0,0-74.109,0-77.417c0-15.583,8.873-43.833,18-43.833
		s17.788,26.943,17.788,43.789c0,5.856,0.213,77.461,0.213,77.461H70.124z"/>
	<text transform="matrix(1 0 0 1 82.6411 212.5005)" display="inline"><tspan x="0" y="0" fill="#FFFFFF" font-family="'Knockout-HTF51-Middleweight'" font-size="18">H</tspan><tspan x="3.366" y="16" fill="#FFFFFF" font-family="'Knockout-HTF51-Middleweight'" font-size="18">I</tspan><tspan x="0.342" y="32" fill="#FFFFFF" font-family="'Knockout-HTF51-Middleweight'" font-size="18">G</tspan><tspan x="0" y="48" fill="#FFFFFF" font-family="'Knockout-HTF51-Middleweight'" font-size="18">H</tspan></text>
</g>
<g id="Flight">
	<rect id="Sky" x="-16.42" y="-96" fill="#CAEBFC" width="571.903" height="1044.14"/>
	<g id="Airport">
		<polygon fill="#A9D2E6" points="-4.288,415.074 555.827,410.874 553.269,471.347 -5.567,461.688 		"/>
		<polygon fill="#96C5DA" points="103.619,348.303 119.156,347.882 119.156,367.619 103.619,367.619 		"/>
		<polygon fill="#A9D2E6" points="-4.308,362.16 -4.728,371.399 544.98,356.281 545.4,346.202 		"/>
		<polygon fill="#A9D2E6" points="119.035,347.85 123.093,349.248 123.093,361.498 119.104,360.796 		"/>
		<polygon fill="#96C5DA" points="-6.408,362.16 -6.408,368.039 545.82,350.822 545.82,345.783 		"/>
		<g id="First_Floor">
			<g id="Windows">
				<g>
					<defs>
						<polygon id="SVGID_1_" points="-13.405,424.87 557.721,424.87 557.159,454.969 -12.287,447.409 						"/>
					</defs>
					<clipPath id="SVGID_2_">
						<use xlink:href="#SVGID_1_"  overflow="visible"/>
					</clipPath>
					<polygon clip-path="url(#SVGID_2_)" fill="#96C5DA" points="527.622,422.495 548.062,422.213 547.501,459.167 527.622,458.049 
											"/>
					<polygon clip-path="url(#SVGID_2_)" fill="#96C5DA" points="124.479,421.373 124.756,451.892 150.793,453.007 150.515,423.053 
											"/>
					<polygon clip-path="url(#SVGID_2_)" fill="#96C5DA" points="39.649,421.656 39.649,454.687 63.723,454.41 63.445,423.053 					
						"/>
					<polygon clip-path="url(#SVGID_2_)" fill="#96C5DA" points="69.044,421.656 76.883,422.771 77.162,453.57 69.324,454.129 					
						"/>
					<polygon clip-path="url(#SVGID_2_)" fill="#96C5DA" points="11.371,424.175 11.65,451.75 -6.827,452.029 -6.267,424.175 					
						"/>
					<polygon clip-path="url(#SVGID_2_)" fill="#96C5DA" points="481.149,422.495 480.871,458.049 521.186,459.45 521.186,422.495 
											"/>
				</g>
			</g>
			<polygon fill="#96C5DA" points="385.402,425.993 385.402,468.406 407.238,469.037 407.028,425.993 			"/>
			<polygon fill="#96C5DA" points="379.102,425.782 379.102,468.406 369.443,468.196 369.443,425.782 			"/>
			<rect x="355.796" y="425.572" fill="#96C5DA" width="10.078" height="42.624"/>
			<polygon fill="#96C5DA" points="352.016,425.572 352.227,468.406 340.048,468.196 339.839,425.572 			"/>
			<polygon fill="#96C5DA" points="292.804,425.151 292.595,466.936 279.786,466.517 279.786,424.942 			"/>
		</g>
		<g id="Second_Floor">
			<polygon fill="#A9D2E6" points="-6.125,397.993 -5.987,407.095 548.341,401.216 548.761,387.777 			"/>
		</g>
		<g id="Third_Floor">
			<polygon fill="#A9D2E6" points="-5.148,377.278 553.402,362.805 552.983,377.081 -5.567,387.777 			"/>
			
				<line fill="none" stroke="#CAEBFC" stroke-width="0.75" stroke-miterlimit="10" x1="7.451" y1="375.599" x2="7.451" y2="410.033"/>
			
				<line fill="none" stroke="#CAEBFC" stroke-width="0.75" stroke-miterlimit="10" x1="22.569" y1="375.599" x2="22.569" y2="410.033"/>
			
				<line fill="none" stroke="#CAEBFC" stroke-width="0.75" stroke-miterlimit="10" x1="36.427" y1="375.599" x2="36.427" y2="410.033"/>
			
				<line fill="none" stroke="#CAEBFC" stroke-width="0.75" stroke-miterlimit="10" x1="52.384" y1="374.759" x2="52.384" y2="409.194"/>
			
				<line fill="none" stroke="#CAEBFC" stroke-width="0.75" stroke-miterlimit="10" x1="68.343" y1="371.399" x2="68.343" y2="410.455"/>
			
				<line fill="none" stroke="#CAEBFC" stroke-width="0.75" stroke-miterlimit="10" x1="84.301" y1="372.24" x2="84.301" y2="411.294"/>
			
				<line fill="none" stroke="#CAEBFC" stroke-width="0.75" stroke-miterlimit="10" x1="100.679" y1="371.818" x2="100.679" y2="410.874"/>
			
				<line fill="none" stroke="#CAEBFC" stroke-width="0.75" stroke-miterlimit="10" x1="117.476" y1="370.56" x2="117.476" y2="409.614"/>
			
				<line fill="none" stroke="#CAEBFC" stroke-width="0.75" stroke-miterlimit="10" x1="149.812" y1="371.399" x2="149.812" y2="410.455"/>
			
				<line fill="none" stroke="#CAEBFC" stroke-width="0.75" stroke-miterlimit="10" x1="133.014" y1="370.979" x2="133.014" y2="410.033"/>
			
				<line fill="none" stroke="#CAEBFC" stroke-width="0.75" stroke-miterlimit="10" x1="164.93" y1="370.56" x2="164.93" y2="409.614"/>
			
				<line fill="none" stroke="#CAEBFC" stroke-width="0.75" stroke-miterlimit="10" x1="180.468" y1="371.399" x2="180.468" y2="410.455"/>
			
				<line fill="none" stroke="#CAEBFC" stroke-width="0.75" stroke-miterlimit="10" x1="196.007" y1="368.46" x2="196.007" y2="407.515"/>
			
				<line fill="none" stroke="#CAEBFC" stroke-width="0.75" stroke-miterlimit="10" x1="211.964" y1="368.46" x2="211.964" y2="407.515"/>
			
				<line fill="none" stroke="#CAEBFC" stroke-width="0.75" stroke-miterlimit="10" x1="228.343" y1="367.619" x2="228.343" y2="406.675"/>
			
				<line fill="none" stroke="#CAEBFC" stroke-width="0.75" stroke-miterlimit="10" x1="245.14" y1="367.619" x2="245.14" y2="406.675"/>
			
				<line fill="none" stroke="#CAEBFC" stroke-width="0.75" stroke-miterlimit="10" x1="259.838" y1="367.2" x2="259.838" y2="406.254"/>
			
				<line fill="none" stroke="#CAEBFC" stroke-width="0.75" stroke-miterlimit="10" x1="276.217" y1="367.2" x2="276.217" y2="406.254"/>
			
				<line fill="none" stroke="#CAEBFC" stroke-width="0.75" stroke-miterlimit="10" x1="294.273" y1="366.359" x2="294.273" y2="405.415"/>
			
				<line fill="none" stroke="#CAEBFC" stroke-width="0.75" stroke-miterlimit="10" x1="310.231" y1="366.359" x2="310.231" y2="405.415"/>
			
				<line fill="none" stroke="#CAEBFC" stroke-width="0.75" stroke-miterlimit="10" x1="328.71" y1="366.359" x2="328.71" y2="405.415"/>
			
				<line fill="none" stroke="#CAEBFC" stroke-width="0.75" stroke-miterlimit="10" x1="345.087" y1="366.779" x2="345.087" y2="405.835"/>
			
				<line fill="none" stroke="#CAEBFC" stroke-width="0.75" stroke-miterlimit="10" x1="460.571" y1="361.74" x2="460.571" y2="409.614"/>
			
				<line fill="none" stroke="#CAEBFC" stroke-width="0.75" stroke-miterlimit="10" x1="481.568" y1="362.16" x2="481.568" y2="410.033"/>
			
				<line fill="none" stroke="#CAEBFC" stroke-width="0.75" stroke-miterlimit="10" x1="502.987" y1="360.901" x2="502.987" y2="408.775"/>
			
				<line fill="none" stroke="#CAEBFC" stroke-width="0.75" stroke-miterlimit="10" x1="524.403" y1="360.48" x2="524.403" y2="408.354"/>
			
				<line fill="none" stroke="#CAEBFC" stroke-width="0.75" stroke-miterlimit="10" x1="544.562" y1="357.961" x2="544.562" y2="405.835"/>
		</g>
		<g id="Tower">
			<polygon display="none" fill="#CAEBFC" points="320.31,377.278 320.31,410.455 471.071,410.455 470.86,381.058 452.593,378.749 
				452.803,351.031 430.966,346.623 350.126,345.362 350.126,373.709 			"/>
			<polygon fill="#96C5DA" points="449.444,277.542 434.257,318.486 410.878,309.809 369.304,309.668 349.985,317.787 
				342.987,275.652 374.483,265.993 416.896,265.993 			"/>
			<polygon fill="#96C5DA" points="434.326,315.967 434.114,350.611 411.648,345.573 366.505,345.783 353.276,347.463 
				353.906,316.387 367.764,309.143 411.019,309.143 			"/>
			<polygon fill="#96C5DA" points="348.309,347.601 348.446,378.82 408.357,377.561 451.334,385.257 451.334,352.922 
				413.118,344.788 353.381,344.732 			"/>
			<polygon fill="#96C5DA" points="325.034,380.113 325.07,413.394 469.811,414.024 469.672,386.379 413.118,376.963 
				338.368,376.963 			"/>
			<g id="Windows_1_">
				<polygon fill="#A9D2E6" points="387.922,271.032 413.748,271.032 413.118,296.859 388.063,296.787 				"/>
				<polygon fill="#A9D2E6" points="384.004,271.242 384.981,296.932 368.604,296.932 366.645,271.312 				"/>
				<polygon fill="#A9D2E6" points="417.738,271.032 430.756,275.512 424.456,299.588 415.778,297.207 				"/>
				<polygon fill="#A9D2E6" points="434.114,276.631 444.896,280.271 436.775,303.086 427.396,300.291 				"/>
				<polygon fill="#A9D2E6" points="429.496,321.563 429.358,336.124 411.963,332.135 365.697,332.203 357.791,335.494 
					357.791,319.572 365.382,316.281 411.438,316.213 				"/>
				<polygon fill="#A9D2E6" points="348.236,352.292 355.586,349.41 413.021,349.332 446.81,357.613 446.714,372.24 
					412.698,366.149 359.456,366.18 348.343,368.984 				"/>
				<polygon fill="#A9D2E6" points="465.894,390.297 466.03,403.315 413.013,398.485 338.472,398.63 325.034,400.9 325.034,385.048 
					338.682,382.212 413.327,382.049 				"/>
				<line fill="none" stroke="#96C5DA" stroke-miterlimit="10" x1="358.104" y1="380.186" x2="358.104" y2="399.64"/>
				<line fill="none" stroke="#96C5DA" stroke-miterlimit="10" x1="375.708" y1="379.726" x2="375.708" y2="399.185"/>
				<line fill="none" stroke="#96C5DA" stroke-miterlimit="10" x1="393.449" y1="380.954" x2="393.449" y2="400.408"/>
				<line fill="none" stroke="#96C5DA" stroke-miterlimit="10" x1="377.669" y1="348.44" x2="377.669" y2="367.896"/>
				
					<line fill="none" stroke="#96C5DA" stroke-width="2" stroke-miterlimit="10" x1="413.397" y1="380.848" x2="413.397" y2="400.304"/>
				
					<line fill="none" stroke="#96C5DA" stroke-width="2" stroke-miterlimit="10" x1="413.082" y1="348.512" x2="413.082" y2="367.967"/>
				
					<line fill="none" stroke="#96C5DA" stroke-width="2" stroke-miterlimit="10" x1="411.822" y1="313.656" x2="411.822" y2="333.111"/>
				
					<line fill="none" stroke="#96C5DA" stroke-width="2" stroke-miterlimit="10" x1="359.224" y1="348.407" x2="359.224" y2="371.818"/>
				
					<line fill="none" stroke="#96C5DA" stroke-width="2" stroke-miterlimit="10" x1="338.752" y1="380.322" x2="338.752" y2="403.734"/>
				
					<line fill="none" stroke="#96C5DA" stroke-width="2" stroke-miterlimit="10" x1="365.838" y1="313.026" x2="365.838" y2="336.439"/>
				<line fill="none" stroke="#96C5DA" stroke-miterlimit="10" x1="394.151" y1="348.44" x2="394.151" y2="367.896"/>
				<line fill="none" stroke="#96C5DA" stroke-miterlimit="10" x1="431.632" y1="352.22" x2="431.632" y2="371.675"/>
				<line fill="none" stroke="#96C5DA" stroke-miterlimit="10" x1="428.903" y1="382.98" x2="428.903" y2="402.437"/>
				<line fill="none" stroke="#96C5DA" stroke-miterlimit="10" x1="388.167" y1="313.689" x2="388.167" y2="333.145"/>
				<line fill="none" stroke="#96C5DA" stroke-miterlimit="10" x1="442.445" y1="385.395" x2="442.445" y2="404.852"/>
				<line fill="none" stroke="#96C5DA" stroke-miterlimit="10" x1="455.779" y1="388.02" x2="455.779" y2="407.476"/>
			</g>
		</g>
		<polygon fill="#96C5DA" points="-6.408,412.745 -6.408,416.754 556.319,413.894 556.319,410.455 		"/>
	</g>
	<g id="Deck">
		<polygon fill="#595A5C" points="-11.22,458.477 554.64,470.086 557.107,956.01 -20.364,958.332 		"/>
		<g id="Markers">
			
				<line display="none" fill="none" stroke="#ED1C24" stroke-miterlimit="10" x1="226.747" y1="635.728" x2="540.027" y2="468.171"/>
			<polyline fill="#6D6F71" points="263.282,608.433 280.08,608.852 311.996,591.634 298.139,590.795 263.282,608.433 			"/>
			<polygon fill="#6D6F71" points="331.104,574.206 342.862,575.888 369.318,561.607 357.561,560.769 			"/>
			<polygon fill="#6D6F71" points="381.895,547.537 391.426,549.17 409.624,539.207 401.024,538.302 			"/>
			<polygon fill="#6D6F71" points="417.088,530.952 425.487,530.952 438.19,524.338 431.157,523.709 			"/>
			<polygon fill="#6D6F71" points="444.279,516.883 451.103,517.305 462.757,511.426 456.247,511.109 			"/>
			<polygon fill="#6D6F71" points="466.747,505.545 472.836,505.65 482.075,500.716 476.512,500.4 			"/>
			<polygon fill="#6D6F71" points="485.329,496.202 490.61,496.235 496.91,492.875 492.258,492.527 			"/>
			<polygon fill="#6D6F71" points="498.768,489.168 502.547,489.378 507.901,486.648 503.912,486.543 			"/>
			<polygon fill="#6D6F71" points="510.315,483.708 513.149,483.918 517.351,481.399 514.936,481.189 			"/>
		</g>
	</g>
	<g id="Wing">
		<polygon fill="#939598" points="-5.659,181.391 546.271,92.37 546.271,254.928 -7.982,254.928 		"/>
		<polygon fill="#818386" points="547.82,138.041 549.366,227.835 -9.53,242.543 -9.53,206.161 		"/>
		<polygon fill="#595A5C" points="-13.398,186.809 550.142,96.239 550.142,104.755 -13.398,191.453 		"/>
		<polygon fill="#939598" points="399.26,293.709 411.438,283.631 546.241,284.891 545.82,319.326 		"/>
	</g>
	<g id="Engine">
		<path fill="#BDBEC1" d="M378.892,255.495c0,79.783-64.682,144.46-144.46,144.46c-79.783,0-144.461-64.678-144.461-144.46
			c0-79.784,64.678-144.461,144.461-144.461C314.21,111.033,378.892,175.711,378.892,255.495z"/>
		<circle fill="#818386" cx="239.89" cy="247.305" r="142.152"/>
		<circle fill="#6D6F71" cx="238.001" cy="252.135" r="115.485"/>
		<g>
			<defs>
				<circle id="SVGID_3_" cx="238.001" cy="252.135" r="115.485"/>
			</defs>
			<clipPath id="SVGID_4_">
				<use xlink:href="#SVGID_3_"  overflow="visible"/>
			</clipPath>
			<path clip-path="url(#SVGID_4_)" fill="#414142" d="M114.116,271.311c0,62.621,50.768,113.385,113.386,113.385
				c62.614,0,113.383-50.764,113.383-113.385c0-62.62-50.769-113.385-113.383-113.385
				C164.884,157.926,114.116,208.69,114.116,271.311z"/>
		</g>
		<g id="Big_90_1_">
			<g>
				<path fill="#C01E2E" d="M239.892,374.139c-69.126,0-125.364-56.238-125.364-125.364c0-69.124,56.238-125.361,125.364-125.361
					c69.125,0,125.362,56.237,125.362,125.361C365.254,317.9,309.017,374.139,239.892,374.139z"/>
				<g>
					<path fill="#B5ACA5" d="M239.892,124.414c68.684,0,124.362,55.679,124.362,124.361c0,68.681-55.679,124.364-124.362,124.364
						c-68.682,0-124.364-55.683-124.364-124.364C115.527,180.093,171.21,124.414,239.892,124.414 M239.892,122.414
						c-33.752,0-65.484,13.144-89.352,37.011c-23.868,23.867-37.013,55.599-37.013,89.35s13.145,65.484,37.013,89.352
						c23.867,23.867,55.6,37.012,89.352,37.012s65.484-13.145,89.352-37.012s37.011-55.6,37.011-89.352
						c0-33.752-13.144-65.484-37.011-89.35C305.377,135.558,273.645,122.414,239.892,122.414L239.892,122.414z"/>
				</g>
			</g>
			<g>
				<path fill="#FFFFFF" d="M187.437,321.947c-27.197,0-41.976-17.349-41.976-37.053v-6.638h24.844v2.57
					c0,11.351,5.997,16.917,17.35,16.917c11.777,0,16.488-6.637,16.488-16.703v-28.699c-5.354,7.066-12.847,13.063-26.556,13.063
					c-20.773,0-32.555-13.492-32.555-31.269V213.36c0-24.628,16.275-41.121,43.265-41.121c28.057,0,43.689,16.493,43.689,41.336
					v66.823C231.986,305.671,214.424,321.947,187.437,321.947z M204.143,211.433c0-8.138-5.138-15.207-15.846-15.207
					c-10.066,0-15.638,6.212-15.638,14.351v21.203c0,8.138,4.928,14.349,15.638,14.349c10.282,0,15.846-6.424,15.846-14.349V211.433
					z"/>
				<path fill="#FFFFFF" d="M294.312,321.947c-27.2,0-43.906-16.705-43.906-41.334v-67.039c0-24.843,16.706-41.336,43.906-41.336
					c26.985,0,43.905,16.493,43.905,41.336v67.039C338.218,305.242,321.298,321.947,294.312,321.947z M310.376,211.861
					c0-7.924-5.784-14.349-16.063-14.349c-10.064,0-16.062,6.425-16.062,14.349v70.25c0,7.924,5.998,14.351,16.062,14.351
					c10.279,0,16.063-6.427,16.063-14.351V211.861z"/>
			</g>
		</g>
	</g>
	<g id="cRVNhi_1_" display="none" opacity="0.2">
		
			<image display="inline" overflow="visible" width="432" height="516" id="cRVNhi_3_" xlink:href="CF3490953B731B81.jpg"  transform="matrix(1.2581 0 0 1.2581 -1.7881 31.4912)">
		</image>
	</g>
</g>
<g id="Words_Flight" display="none">
	<g id="Tagline_copy" display="inline">
		
			<text transform="matrix(1 0 0 1 20.7485 318.1328)" fill="#E8E9E9" font-family="'Knockout-HTF52-Cruiserweight'" font-size="6.5">INFORMATION ≠ DESIGN ≠ DEVELOPMENT</text>
	</g>
	<g id="Name__x26__Position_copy" display="inline">
		<rect x="-1.876" y="321.657" fill="#E8E9E9" width="180" height="56.5"/>
		<rect x="-6.011" y="368" fill="#A7AAAC" width="189.318" height="13.5"/>
		<rect x="-7.227" y="321.657" fill="#A7AAAC" width="189.318" height="13.5"/>
		<text transform="matrix(1 0 0 1 18.2031 353.1982)" fill="#C01E2E" font-family="'Knockout-HTF50-Welterweight'" font-size="20">BOB VAN DER CLAY</text>
		
			<line fill="none" stroke="#595A5C" stroke-width="2" stroke-miterlimit="10" x1="-1.876" y1="325.532" x2="178.124" y2="325.532"/>
		
			<line fill="none" stroke="#595A5C" stroke-width="2" stroke-miterlimit="10" x1="-1.876" y1="330.032" x2="178.123" y2="330.032"/>
		
			<line fill="none" stroke="#595A5C" stroke-width="2" stroke-miterlimit="10" x1="-1.527" y1="334.532" x2="178.473" y2="334.532"/>
		
			<line fill="none" stroke="#595A5C" stroke-width="2" stroke-miterlimit="10" x1="-1.702" y1="368.282" x2="178.299" y2="368.282"/>
		
			<line fill="none" stroke="#595A5C" stroke-width="2" stroke-miterlimit="10" x1="-1.702" y1="372.782" x2="178.298" y2="372.782"/>
		
			<line fill="none" stroke="#595A5C" stroke-width="2" stroke-miterlimit="10" x1="-1.352" y1="377.282" x2="178.647" y2="377.282"/>
		
			<text transform="matrix(1 0 0 1 19.1973 363.25)" fill="#595A5C" font-family="'Knockout-HTF49-Liteweight'" font-size="10" letter-spacing="1">PARTNER • CHIEF TECHNOLOGIST</text>
		<g>
			<path fill="#A7AAAC" d="M88,333.532c-3.17,0-5.75-2.579-5.75-5.75s2.58-5.75,5.75-5.75s5.75,2.579,5.75,5.75
				S91.17,333.532,88,333.532z"/>
			<path fill="#595A5C" d="M88,323.032c2.62,0,4.75,2.131,4.75,4.75s-2.131,4.75-4.75,4.75c-2.619,0-4.75-2.131-4.75-4.75
				S85.38,323.032,88,323.032 M88,321.032c-3.728,0-6.75,3.022-6.75,6.75s3.022,6.75,6.75,6.75s6.75-3.022,6.75-6.75
				S91.728,321.032,88,321.032L88,321.032z"/>
		</g>
		<g>
			<path fill="#A7AAAC" d="M88.298,380.532c-3.17,0-5.75-2.579-5.75-5.75s2.58-5.75,5.75-5.75s5.75,2.579,5.75,5.75
				S91.469,380.532,88.298,380.532z"/>
			<path fill="#595A5C" d="M88.298,370.032c2.62,0,4.75,2.131,4.75,4.75s-2.131,4.75-4.75,4.75c-2.619,0-4.75-2.131-4.75-4.75
				S85.679,370.032,88.298,370.032 M88.298,368.032c-3.728,0-6.75,3.022-6.75,6.75s3.022,6.75,6.75,6.75s6.75-3.022,6.75-6.75
				S92.026,368.032,88.298,368.032L88.298,368.032z"/>
		</g>
	</g>
	<g id="Contact_copy" display="inline">
		<rect x="-1.702" y="380.748" fill="#595A5C" width="180" height="33.668"/>
		<text transform="matrix(1 0 0 1 20.0967 389.5752)" display="none"><tspan x="0" y="0" display="inline" fill="#E7E1D9" font-family="'GUIDesignIcons'" font-size="6.3">Û</tspan><tspan x="4.706" y="0" display="inline" fill="#E7E1D9" font-family="'Knockout-HTF49-Liteweight'" font-size="6.3">HIGH90.COM  </tspan><tspan x="40.156" y="0" display="inline" fill="#E7E1D9" font-family="'ZapfDingbatsITC'" font-size="6.3">✉</tspan><tspan x="45.132" y="0" display="inline" fill="#E7E1D9" font-family="'Knockout-HTF49-Liteweight'" font-size="6.3">BOB@HIGH90.COM  </tspan><tspan x="95.387" y="0" display="inline" fill="#E7E1D9" font-family="'ZapfDingbatsITC'" font-size="6.3">☎</tspan><tspan x="100.548" y="0" display="inline" fill="#E7E1D9" font-family="'Knockout-HTF49-Liteweight'" font-size="6.3">757.744.9090</tspan></text>
		<text transform="matrix(1 0 0 1 20.7695 390.5752)" fill="#E8E9E9" font-family="'Knockout-HTF49-Liteweight'" font-size="8">HIGH90.COM • BOB@HIGH90.COM • 757.332.0827</text>
	</g>
</g>
<g id="Train" display="none">
	<g id="Sky_1_" display="inline">
		<g id="Backdrop_copy">
			<rect x="-2" y="126" fill="#587684" width="180" height="288"/>
		</g>
		<g id="Sunbeam_copy" display="none">
			<polyline display="inline" fill="#90A4AF" points="88.124,288.157 -1.876,288.157 -1.876,270.157 88.124,288.157 			"/>
			<polyline display="inline" fill="#90A4AF" points="88.125,288.157 -43.781,240.147 -34.18,213.767 88.125,288.157 			"/>
			<polyline display="inline" fill="#90A4AF" points="88.125,288.157 -19.406,197.928 -1.36,176.422 88.125,288.157 			"/>
			<polyline display="inline" fill="#90A4AF" points="88.125,288.157 -5.248,126.428 27.097,107.754 88.125,288.157 			"/>
			<polyline display="inline" fill="#90A4AF" points="88.251,288.157 59.209,123.439 92.152,117.63 88.251,288.157 			"/>
			<polyline display="inline" fill="#90A4AF" points="88.124,288.157 118.244,117.342 152.407,123.366 88.124,288.157 			"/>
			<polyline display="inline" fill="#90A4AF" points="88.124,288.157 178.632,131.393 209.985,149.493 88.124,288.157 			"/>
			<polyline display="inline" fill="#90A4AF" points="88.124,288.157 208.687,186.993 228.919,211.104 88.124,288.157 			"/>
			<polyline display="inline" fill="#90A4AF" points="88.124,287.944 236.016,234.116 246.781,263.693 88.124,287.944 			"/>
			<polyline display="inline" fill="#90A4AF" points="88.124,288.158 245.506,288.157 245.507,319.633 88.124,288.158 			"/>
		</g>
	</g>
	<g id="Tail" display="inline">
		<path fill="#90A4AF" d="M52.688,199.475L36.64,236.328c0,0-23.27,13.1-24.092,13.652c-0.822,0.552-1.138,1.33-1.13,2.041
			c0.008,0.711,0.373,33.131,0.373,33.131h2.977L14.638,288l20.708-1.165l10.096-2.847l-1.036-4.4l9.707-10.225L52.688,199.475z"/>
		<g>
			<defs>
				<polygon id="SVGID_5_" points="46.217,283.667 57.499,301.667 57.499,190.415 44.341,190.415 44.341,277.917 				"/>
			</defs>
			<clipPath id="SVGID_6_">
				<use xlink:href="#SVGID_5_"  overflow="visible"/>
			</clipPath>
			<path clip-path="url(#SVGID_6_)" fill="#B2C1C9" d="M52.688,199.475L36.64,236.328c0,0-23.27,13.1-24.092,13.652
				c-0.822,0.552-1.138,1.331-1.13,2.041c0.008,0.711,0.373,33.131,0.373,33.131h2.977L14.638,288l20.708-1.165l10.095-2.847
				l-1.036-4.4l9.707-10.225L52.688,199.475z"/>
		</g>
		<path fill="none" stroke="#587684" stroke-miterlimit="10" d="M36.672,234.904c0,0-1.24,2.104-1.24,5.124
			c0,2.502-0.086,47.972-0.086,47.972"/>
		<g id="Windows_3_">
			<polygon fill="#587684" points="24.733,247.275 24.733,253.143 33.706,249.087 33.706,242.443 			"/>
			<polygon fill="#587684" points="24.733,269.088 24.733,275.316 33.706,273.343 33.706,266.343 			"/>
			<polygon fill="#587684" points="19.556,250.208 19.556,255.472 12.185,258.781 12.185,254.091 			"/>
			<polygon fill="#587684" points="19.556,270.641 19.556,276.415 12.185,278.149 12.185,272.902 			"/>
			
				<line fill="none" stroke="#90A4AF" stroke-width="0.75" stroke-linecap="square" stroke-miterlimit="10" x1="31.458" y1="243.625" x2="31.458" y2="250.136"/>
			
				<line fill="none" stroke="#90A4AF" stroke-width="0.75" stroke-linecap="square" stroke-miterlimit="10" x1="28.875" y1="245.04" x2="28.875" y2="251.295"/>
			
				<line fill="none" stroke="#90A4AF" stroke-width="0.75" stroke-linecap="square" stroke-miterlimit="10" x1="26.561" y1="246.514" x2="26.61" y2="252.556"/>
			
				<line fill="none" stroke="#90A4AF" stroke-width="0.75" stroke-linecap="square" stroke-miterlimit="10" x1="26.561" y1="268.67" x2="26.561" y2="275.147"/>
			
				<line fill="none" stroke="#90A4AF" stroke-width="0.75" stroke-linecap="square" stroke-miterlimit="10" x1="28.875" y1="267.723" x2="28.875" y2="274.371"/>
			
				<line fill="none" stroke="#90A4AF" stroke-width="0.75" stroke-linecap="square" stroke-miterlimit="10" x1="31.458" y1="266.939" x2="31.458" y2="273.803"/>
			
				<line fill="none" stroke="#90A4AF" stroke-width="0.75" stroke-linecap="square" stroke-miterlimit="10" x1="17.836" y1="251.115" x2="17.836" y2="256.215"/>
			
				<line fill="none" stroke="#90A4AF" stroke-width="0.75" stroke-linecap="square" stroke-miterlimit="10" x1="15.85" y1="252.259" x2="15.85" y2="257.226"/>
			
				<line fill="none" stroke="#90A4AF" stroke-width="0.75" stroke-linecap="square" stroke-miterlimit="10" x1="13.772" y1="253.226" x2="13.747" y2="258.067"/>
			
				<line fill="none" stroke="#90A4AF" stroke-width="0.75" stroke-linecap="square" stroke-miterlimit="10" x1="13.75" y1="272.378" x2="13.758" y2="277.706"/>
			
				<line fill="none" stroke="#90A4AF" stroke-width="0.75" stroke-linecap="square" stroke-miterlimit="10" x1="17.836" y1="271.212" x2="17.836" y2="276.719"/>
			
				<line fill="none" stroke="#90A4AF" stroke-width="0.75" stroke-linecap="square" stroke-miterlimit="10" x1="15.85" y1="271.913" x2="15.85" y2="277.371"/>
		</g>
		<polygon fill="#587684" stroke="#90A4AF" stroke-width="0.75" stroke-miterlimit="10" points="20.333,264.898 23.18,263.946 
			23.18,294.665 20.333,294.665 		"/>
		<g id="Car_1_Windows">
			<polygon fill="#587684" points="39.358,262.499 39.358,269.881 36.381,272.395 36.381,265.667 			"/>
			<polygon fill="#587684" points="39.358,241.298 39.358,234.002 36.672,239.835 36.672,246.05 			"/>
			<g>
				<polygon fill="#587684" points="39.5,296.505 39.5,256.699 41.027,253.476 41.027,296.846 				"/>
				<path fill="#90A4AF" d="M40.652,255.144v41.234l-0.776-0.174v-39.421L40.652,255.144 M41.402,251.809l-1.428,3.015l-0.776,1.639
					l-0.072,0.152v0.168v39.421v0.601l0.586,0.131l0.776,0.174l0.914,0.205v-0.937v-41.234V251.809L41.402,251.809z"/>
			</g>
			<polygon fill="#587684" points="41.558,260.131 41.558,267.94 44.341,265.474 44.341,256.816 			"/>
			<polygon fill="#587684" points="41.558,236.146 41.558,228.811 44.341,222.001 44.341,230.063 			"/>
		</g>
		<path fill="none" stroke="#587684" stroke-miterlimit="10" d="M45.667,214.133c0,0-1.24,2.104-1.24,5.124
			c0,2.079-0.086,59.265-0.086,59.265l1.876,6.935"/>
	</g>
	<g id="Cab" display="inline">
		<circle fill="#90A4AF" cx="111.922" cy="179.414" r="3.192"/>
		<circle fill="#C1BFC3" cx="112.957" cy="178.81" r="3.192"/>
		<circle fill="#C1BFC3" cx="82.305" cy="178.529" r="3.904"/>
		<circle fill="#90A4AF" cx="82.823" cy="178.486" r="2.61"/>
		<path fill="none" stroke="#C7C8CA" stroke-miterlimit="10" d="M57.542,193.521c0,0,0.153-2.057-0.043-3.106
			c-0.388-2.071-0.315-2.67,0.561-3.235c9.491-6.126,24.979-9.103,35.765-9.103c1.49,0,1.683,1.251,1.812,2.028
			c0.13,0.776,0.733,2.373,0.733,2.373"/>
		<path fill="none" stroke="#C7C8CA" stroke-miterlimit="10" d="M141.267,194.187c0,0-0.098-2.02,0.121-3.043
			c0.432-2.019,0.376-2.608-0.46-3.186c-9.081-6.248-24.074-9.563-34.571-9.841c-1.45-0.038-1.671,1.183-1.816,1.94
			c-0.146,0.758-0.773,2.308-0.773,2.308"/>
		<path fill="#90A4AF" d="M100.342,180.269c16.135,0.129,31.893,5.709,39.29,9.635c3.674,1.949,7.022,3.875,7.413,9.033
			c0.458,6.057,0.565,15.709,0.565,15.709l-95.376,3.633c0,0-0.174-9.922-0.292-17.26c-0.101-6.256,2.933-9.284,6.02-10.996
			C62.447,187.536,78.427,180.093,100.342,180.269z"/>
	</g>
	<g id="Mirrors" display="inline">
	</g>
	<g id="Windows_2_" display="inline">
		<path fill="#587684" d="M72.77,187.522c5.599-1.419,10.7-2.761,21.604-2.674c1.523,0.012,2.642,1.509,2.635,2.253
			c-0.017,2.2,0.052,5.631-0.063,7.831c-0.051,0.969-0.506,2.361-1.248,2.417c-3.918,0.292-12.958,1.87-20.026,3.657
			c-6.438,1.628-10.967,3.794-15.497,3.758c-0.971-0.008-2.003-1.607-2.113-2.832c-0.119-1.328-0.142-4.662-0.076-6.699
			c0.043-1.326,0.694-1.871,1.704-2.607C62.475,190.593,68.068,188.713,72.77,187.522z"/>
		<path fill="#D4D2D4" d="M73.893,188.599c4.993-1.222,10.861-2.663,20.212-2.588c1.1,0.009,2.064,0.696,2.055,1.926
			c-0.024,3.026,0.125,4.596,0.099,7.928c-0.008,0.971-0.89,1.549-1.632,1.604c-3.917,0.292-11.435,1.558-18.502,3.346
			c-6.438,1.628-10.969,3.956-15.498,3.855c-0.541-0.012-1.913-0.797-2.022-2.022c-0.119-1.328,0.069-4.497,0.085-6.536
			c0.009-1.067,1.288-2.376,1.77-2.736C63.222,191.311,69.548,189.662,73.893,188.599z"/>
		<path fill="#587684" d="M128.315,187.807c-5.575-1.509-10.654-2.933-21.557-3.021c-1.524-0.012-2.666,1.467-2.672,2.211
			c-0.017,2.2-0.143,5.629-0.062,7.83c0.034,0.97,0.468,2.37,1.209,2.437c3.913,0.355,12.927,2.077,19.965,3.978
			c6.412,1.732,10.905,3.971,15.435,4.007c0.971,0.008,2.029-1.575,2.158-2.798c0.141-1.326,0.217-4.658,0.184-6.696
			c-0.021-1.327-0.664-1.882-1.661-2.634C138.56,191.042,132.997,189.074,128.315,187.807z"/>
		<path fill="#D4D2D4" d="M126.916,188.863c-4.973-1.302-10.816-2.837-20.168-2.913c-1.1-0.009-2.075,0.663-2.086,1.892
			c-0.024,3.026-0.198,4.593-0.226,7.926c-0.007,0.971,0.864,1.564,1.605,1.63c3.913,0.355,11.408,1.742,18.446,3.643
			c6.411,1.732,10.903,4.133,15.435,4.104c0.54-0.004,1.925-0.767,2.054-1.99c0.14-1.325,0.005-4.497,0.021-6.536
			c0.008-1.068-1.249-2.397-1.725-2.764C137.542,191.747,131.243,189.996,126.916,188.863z"/>
	</g>
	<g id="Nose" display="inline">
		<path fill="#B2C1C9" d="M52.341,269.693c-0.104-17.665-0.543-39.697-0.452-51.172c0.046-5.694,3.091-8.862,10.105-11.913
			c5.892-2.562,25.178-8.599,39.586-8.482c16.136,0.129,32.981,5.856,38.332,8.161c4.902,2.11,10.476,6.381,10.421,13.199
			c-0.055,6.73,0.77,43.839,0.717,50.396c-9.188-0.963-32.824-0.914-47.822-1.035C91.235,268.75,58.515,269.112,52.341,269.693z"/>
		<g>
			<path fill="none" stroke="#90A4AF" stroke-width="0.5" stroke-miterlimit="10" d="M91.862,225.72
				c-0.001-0.198,0.16-0.361,0.358-0.362l23.267-0.168c0.198-0.001,0.363,0.16,0.366,0.357l0.635,37.309
				c0.003,0.198-0.156,0.358-0.354,0.356l-23.74-0.229c-0.198-0.002-0.361-0.166-0.362-0.363L91.862,225.72z"/>
		</g>
		<polyline fill="none" stroke="#587684" stroke-linecap="round" stroke-miterlimit="10" points="85.994,228.811 85.734,230.708 
			85.476,246.154 86.08,248.051 		"/>
		<polyline fill="none" stroke="#587684" stroke-linecap="round" stroke-miterlimit="10" points="121.197,229.07 122.404,231.227 
			122.836,246.067 121.715,247.62 		"/>
		
			<ellipse transform="matrix(0.6847 -0.7288 0.7288 0.6847 -139.4834 114.0593)" fill="#90A4AF" cx="62.079" cy="218.234" rx="3.488" ry="2.502"/>
		
			<ellipse transform="matrix(0.6846 -0.7289 0.7289 0.6846 -139.3846 113.7423)" fill="#E3E4E5" cx="61.754" cy="217.951" rx="2.832" ry="2.032"/>
		
			<ellipse transform="matrix(-0.6228 -0.7824 0.7824 -0.6228 60.9032 466.66)" fill="#90A4AF" cx="142.943" cy="218.649" rx="3.189" ry="2.288"/>
		
			<ellipse transform="matrix(-0.623 -0.7822 0.7822 -0.623 62.0944 466.7572)" fill="#E3E4E5" cx="143.52" cy="218.416" rx="2.589" ry="1.857"/>
		<g id="Vents">
			
				<line fill="none" stroke="#587684" stroke-linecap="round" stroke-miterlimit="10" x1="65.188" y1="257.207" x2="69.395" y2="257.06"/>
			
				<line fill="none" stroke="#587684" stroke-linecap="round" stroke-miterlimit="10" x1="65.188" y1="258.928" x2="69.395" y2="258.781"/>
			
				<line fill="none" stroke="#587684" stroke-linecap="round" stroke-miterlimit="10" x1="65.188" y1="260.649" x2="69.395" y2="260.502"/>
			
				<line fill="none" stroke="#587684" stroke-linecap="round" stroke-miterlimit="10" x1="65.188" y1="262.371" x2="69.395" y2="262.223"/>
			
				<line fill="none" stroke="#587684" stroke-linecap="round" stroke-miterlimit="10" x1="65.188" y1="264.092" x2="69.395" y2="263.946"/>
			
				<line fill="none" stroke="#587684" stroke-linecap="round" stroke-miterlimit="10" x1="65.188" y1="265.813" x2="69.395" y2="265.667"/>
			
				<line fill="none" stroke="#587684" stroke-linecap="round" stroke-miterlimit="10" x1="137.536" y1="257.188" x2="141.742" y2="257.335"/>
			
				<line fill="none" stroke="#587684" stroke-linecap="round" stroke-miterlimit="10" x1="137.536" y1="258.911" x2="141.742" y2="259.057"/>
			
				<line fill="none" stroke="#587684" stroke-linecap="round" stroke-miterlimit="10" x1="137.536" y1="260.631" x2="141.742" y2="260.778"/>
			
				<line fill="none" stroke="#587684" stroke-linecap="round" stroke-miterlimit="10" x1="137.536" y1="262.353" x2="141.742" y2="262.499"/>
			
				<line fill="none" stroke="#587684" stroke-linecap="round" stroke-miterlimit="10" x1="137.536" y1="264.074" x2="141.742" y2="264.221"/>
			
				<line fill="none" stroke="#587684" stroke-linecap="round" stroke-miterlimit="10" x1="137.536" y1="265.795" x2="141.742" y2="265.942"/>
		</g>
		<ellipse fill="#587684" cx="86.238" cy="249.001" rx="0.762" ry="1.208"/>
		<ellipse fill="#587684" cx="121.788" cy="248.335" rx="0.634" ry="1.167"/>
		<ellipse fill="#587684" cx="121.17" cy="228.272" rx="0.587" ry="1.021"/>
		<ellipse fill="#587684" cx="86.08" cy="227.91" rx="0.762" ry="1.242"/>
		<path fill="#587684" d="M97.688,243.078l-4.289-0.172c-0.315,0-0.57,0.262-0.57,0.586s0.255,0.586,0.57,0.586l4.289-0.281
			c0.198,0,0.359-0.161,0.359-0.359S97.886,243.078,97.688,243.078z"/>
	</g>
	<g id="Wipers" display="inline">
		<polygon fill="#587684" points="127.292,186.5 127.667,187.167 119.584,189.917 119.375,189.583 		"/>
		<g>
			<polygon fill="#587684" points="71.339,186.926 71.56,186.621 80.671,189.126 			"/>
			<polygon fill="#587684" points="71.458,186.333 70.917,187.083 81.167,189.5 81.458,189.083 71.458,186.333 			"/>
		</g>
		<polygon fill="#587684" points="75.75,188.483 75.633,189.011 85.75,190.125 85.799,189.644 		"/>
		<polygon fill="#587684" points="114.084,190.958 114.292,191.5 123.238,189.208 123.063,188.733 		"/>
	</g>
	<g id="Number_Plates" display="inline">
		<path fill="#90A4AF" d="M77.452,233.297c0.053,1.422-1.661,2.717-2.848,2.761l-21.873,0.086c-1.186,0.043-2.364-1.25-2.416-2.674
			l0.172-7.55c-0.053-1.422,1.316-2.89,2.502-2.933l22.613-1.025c1.186-0.043,2.189,1.075,2.242,2.497L77.452,233.297z"/>
		<path fill="#B2C1C9" d="M72.861,232.452c0.046,1.243-0.669,2.449-1.622,2.484l-18.664,0.508c-0.953,0.034-1.763-0.943-1.808-2.187
			l0.331-7.281c-0.046-1.242,0.69-2.278,1.643-2.313l18.627-0.806c0.953-0.035,1.778,1.071,1.823,2.313L72.861,232.452z"/>
		<path fill="#F2F2F3" stroke="#587684" stroke-width="0.5" stroke-miterlimit="10" d="M71.389,231.807
			c0.036,0.979-0.678,2.106-1.53,2.138l-16.609,0.297c-0.852,0.031-1.572-0.736-1.607-1.714l0.323-5.734
			c-0.036-0.978,0.626-1.796,1.478-1.828l16.759-0.729c0.852-0.031,1.473,0.858,1.509,1.835L71.389,231.807z"/>
		<path fill="#90A4AF" d="M129.476,233.513c-0.05,1.422,1.582,2.721,2.71,2.767l20.78,0.125c1.124,0.045,2.244-1.245,2.288-2.669
			l-0.177-7.55c0.048-1.422-1.256-2.892-2.382-2.938l-21.484-1.067c-1.129-0.045-2.079,1.071-2.127,2.493L129.476,233.513z"/>
		<path fill="#B2C1C9" d="M133.833,232.677c-0.04,1.242,0.642,2.45,1.547,2.487l17.731,0.542c0.906,0.036,1.674-0.939,1.714-2.183
			l-0.327-7.281c0.041-1.242-0.66-2.28-1.564-2.316l-17.699-0.84c-0.905-0.037-1.688,1.068-1.728,2.309L133.833,232.677z"/>
		<path fill="#F2F2F3" stroke="#587684" stroke-width="0.5" stroke-miterlimit="10" d="M135.231,232.033
			c-0.032,0.979,0.647,2.107,1.456,2.141l15.781,0.327c0.81,0.033,1.492-0.732,1.523-1.711l-0.317-5.733
			c0.032-0.978-0.598-1.797-1.407-1.831l-15.924-0.758c-0.81-0.033-1.398,0.855-1.431,1.833L135.231,232.033z"/>
		<g>
			<g>
				<path fill="#587684" d="M56.446,232.98l0.357-2.991l-1.916,0.053l-0.363,2.973l-0.966,0.017l0.837-6.757l0.958-0.038l-0.36,2.94
					l1.914-0.058l0.354-2.958l0.948-0.039l-0.807,6.841L56.446,232.98z"/>
				<path fill="#587684" d="M58.499,232.942l0.798-6.865l0.958-0.039l-0.791,6.886L58.499,232.942z"/>
				<path fill="#587684" d="M63.725,232.845l-0.125-0.531c-0.283,0.455-0.788,0.705-1.397,0.716
					c-1.179,0.021-1.664-0.809-1.544-1.868l0.388-3.422c0.115-1.016,0.83-1.912,2.09-1.965c1.271-0.052,1.71,0.713,1.589,1.835
					l-0.044,0.41l-0.911,0.031l0.057-0.523c0.051-0.47-0.163-0.9-0.789-0.876c-0.625,0.024-0.97,0.493-1.022,0.962l-0.405,3.62
					c-0.054,0.479,0.18,0.931,0.819,0.917c0.64-0.013,0.985-0.48,1.038-0.961l0.118-1.078l-0.902,0.025l0.092-0.835l1.813-0.055
					l-0.387,3.591L63.725,232.845z"/>
				<path fill="#587684" d="M68.044,232.762l0.317-3.102l-1.915,0.055l-0.324,3.084l-0.966,0.019l0.746-7.01l0.958-0.04l-0.321,3.05
					l1.913-0.061l0.314-3.068l0.948-0.04L69,232.743L68.044,232.762z"/>
			</g>
		</g>
		<g>
			<g>
				<path fill="#587684" d="M140.384,233.117l-0.167-3.087l-1.828-0.078l0.156,3.106l-0.924-0.029l-0.346-7.104l0.912,0.052
					l0.156,3.071l1.824,0.083l-0.167-3.053l0.903,0.05l0.395,7.017L140.384,233.117z"/>
				<path fill="#587684" d="M142.348,233.179l-0.409-6.992l0.912,0.051l0.422,6.97L142.348,233.179z"/>
				<path fill="#587684" d="M147.352,233.333l-0.211-0.533c-0.193,0.438-0.635,0.663-1.22,0.645
					c-1.13-0.034-1.736-0.897-1.803-1.961l-0.216-3.442c-0.064-1.022,0.465-1.866,1.665-1.799c1.21,0.067,1.765,0.867,1.843,1.97
					l0.028,0.401l-0.867-0.041l-0.036-0.517c-0.032-0.465-0.313-0.912-0.909-0.943c-0.597-0.031-0.845,0.412-0.814,0.879
					l0.233,3.619c0.031,0.479,0.333,0.945,0.945,0.965c0.613,0.02,0.864-0.425,0.831-0.901l-0.073-1.065l-0.862-0.035l-0.056-0.829
					l1.73,0.074l0.249,3.525L147.352,233.333z"/>
				<path fill="#587684" d="M151.49,233.456l-0.233-2.973l-1.831-0.073l0.223,2.991l-0.925-0.027l-0.496-6.842l0.912,0.049
					l0.222,2.958l1.827,0.079l-0.232-2.939l0.903,0.048l0.547,6.755L151.49,233.456z"/>
			</g>
		</g>
	</g>
	<g id="Big_90_copy" display="inline">
		<g>
			<path fill="#C01E2E" d="M103.104,215.971c-4.856,0-8.808-3.951-8.808-8.807c0-4.856,3.951-8.807,8.808-8.807
				c4.854,0,8.805,3.951,8.805,8.807C111.909,212.021,107.959,215.971,103.104,215.971z"/>
			<path fill="#90A4AF" d="M103.104,198.857c4.587,0,8.305,3.719,8.305,8.307c0,4.588-3.718,8.307-8.305,8.307
				c-4.588,0-8.308-3.719-8.308-8.307C94.797,202.577,98.517,198.857,103.104,198.857 M103.104,197.857
				c-5.132,0-9.308,4.175-9.308,9.307s4.176,9.307,9.308,9.307c5.131,0,9.305-4.175,9.305-9.307S108.235,197.857,103.104,197.857
				L103.104,197.857z"/>
		</g>
		
			<text transform="matrix(1 0 0 1 96.1807 211.8091)" fill="#FFFFFF" font-family="'Knockout-HTF50-Welterweight'" font-size="14.3061">90</text>
	</g>
	<g id="Skirt" display="inline">
		<g>
			<path fill="#90A4AF" d="M93.639,287.481c-13.362,0-26.39-0.138-37.694-0.398c-1.258-1.014-1.94-5.771-2.061-9.231
				c2.414-0.383,14.317-0.489,24.9-0.584c7.547-0.067,15.694-0.103,23.561-0.103c26.35,0,44.711,0.379,47.699,0.975
				c-0.008,2.123-0.199,6.495-1.021,8.438C128.951,287.323,107.851,287.481,93.639,287.481z"/>
			<path fill="#90A4AF" d="M102.347,277.915c27.87,0,43.119,0.419,46.941,0.874c-0.038,2.306-0.264,5.392-0.793,7.058
				c-19.91,0.729-40.77,0.885-54.856,0.885c-13.242,0-26.157-0.136-37.388-0.392c-0.724-0.902-1.405-4.276-1.588-7.826
				c3.355-0.311,14.322-0.408,24.128-0.496c7.546-0.067,15.691-0.103,23.554-0.103H102.347 M102.345,276.415
				c-7.999,0-16.11,0.036-23.567,0.103c-16.711,0.149-25.657,0.279-25.657,0.827c0,0,0.172,9.103,2.588,10.483
				c11.021,0.256,24.169,0.402,37.93,0.402c18.772,0,38.683-0.273,55.859-0.92c1.381-2.417,1.294-9.662,1.294-9.662
				C150.792,276.764,127.101,276.415,102.345,276.415L102.345,276.415z"/>
		</g>
		<g>
			<path fill="#90A4AF" d="M105.133,306.549c-23.323,0-43.695-0.65-46.545-1.468c-0.148-2.138-0.92-12.517-2.191-17.229
				c3.135-0.961,22.849-1.645,48.067-1.645c25.308,0,41.01,0.661,44.146,1.333c-1.98,4.509-2.254,10.436-2.437,14.419
				c-0.061,1.298-0.112,2.44-0.214,3.146c-1.948,0.709-15.269,1.444-40.818,1.444C105.139,306.549,105.136,306.549,105.133,306.549z
				"/>
			<path fill="#90A4AF" d="M104.464,286.957c23.314,0,38.599,0.565,43.098,1.168c-1.709,4.496-1.963,10.013-2.138,13.8
				c-0.046,1.008-0.088,1.92-0.15,2.584c-3.009,0.646-16.262,1.29-40.141,1.29c-24.472,0-41.994-0.667-45.837-1.337
				c-0.208-2.852-0.896-11.355-1.983-16.039C61.541,287.676,78.336,286.957,104.464,286.957 M104.464,285.457
				c-24.345,0-49.368,0.677-48.928,2.112c1.294,4.229,2.157,15.186,2.33,17.947c0.07,1.126,24.191,1.782,47.268,1.782
				c21.071,0,41.271-0.547,41.518-1.782c0.518-2.588-0.086-12.166,2.935-18.293C150.154,286.069,127.615,285.457,104.464,285.457
				L104.464,285.457z"/>
		</g>
		<g id="Coupler">
			<path fill="#587684" d="M121.153,291.352c0,4.262-3.455,7.718-7.718,7.718H96.77c-4.263,0-7.718-3.456-7.718-7.718v-3.429
				c0-4.263,3.455-7.718,7.718-7.718h16.666c4.263,0,7.718,3.455,7.718,7.718V291.352z"/>
			<path fill="none" stroke="#587684" stroke-width="1.5" stroke-linecap="round" stroke-miterlimit="10" d="M106.788,294.989
				c0,0,0,9.447,3.235,9.447"/>
			<path fill="#90A4AF" stroke="#587684" stroke-miterlimit="10" d="M113.776,293.802c0,1.978-1.688,3.582-3.771,3.582h-11.29
				c-2.083,0-3.771-1.604-3.771-3.582v-9.013c0-1.98,1.688-3.584,3.771-3.584h11.29c2.082,0,3.771,1.604,3.771,3.584V293.802z"/>
			<path fill="#90A4AF" stroke="#587684" stroke-miterlimit="10" d="M105.209,293.096c0,1.989-1.489,3.604-3.326,3.604h-3.118
				c-1.838,0-3.327-1.614-3.327-3.604v-7.602c0-1.99,1.489-3.604,3.327-3.604h3.118c1.837,0,3.326,1.614,3.326,3.604V293.096z"/>
			<path fill="#90A4AF" stroke="#587684" stroke-miterlimit="10" d="M114.294,294.435c0,1.323-1.072,2.396-2.398,2.396h-1.021
				c-1.325,0-2.397-1.073-2.397-2.396v-9.925c0-1.324,1.072-2.398,2.397-2.398h1.021c1.326,0,2.398,1.074,2.398,2.398V294.435z"/>
			<g id="_x33_hkIFK_1_" display="none">
				
					<image display="inline" overflow="visible" width="1200" height="854" id="_x33_hkIFK_2_" xlink:href="CF3490953B731B87.jpg"  transform="matrix(1 0 0 1 -8 275)">
				</image>
			</g>
		</g>
		<g id="Rivets">
			<circle fill="#587684" cx="91.294" cy="277.794" r="0.664"/>
			<circle fill="#587684" cx="118.727" cy="277.905" r="0.664"/>
			<circle fill="#587684" cx="121.758" cy="277.97" r="0.664"/>
			<circle fill="#587684" cx="124.791" cy="277.97" r="0.663"/>
			<circle fill="#587684" cx="127.822" cy="278.034" r="0.663"/>
			<circle fill="#587684" cx="130.854" cy="278.1" r="0.663"/>
			<circle fill="#587684" cx="133.886" cy="278.132" r="0.663"/>
			<circle fill="#587684" cx="136.917" cy="278.229" r="0.664"/>
			<circle fill="#587684" cx="139.95" cy="278.358" r="0.664"/>
			<circle fill="#587684" cx="142.981" cy="278.455" r="0.664"/>
			<circle fill="#587684" cx="146.014" cy="278.649" r="0.663"/>
			<circle fill="#587684" cx="149.045" cy="278.811" r="0.663"/>
			<circle fill="#587684" cx="88.243" cy="277.826" r="0.664"/>
			<circle fill="#587684" cx="85.19" cy="277.858" r="0.663"/>
			<circle fill="#587684" cx="82.138" cy="277.891" r="0.663"/>
			<circle fill="#587684" cx="76.033" cy="277.955" r="0.663"/>
			<circle fill="#587684" cx="79.086" cy="277.923" r="0.663"/>
			<circle fill="#587684" cx="72.981" cy="277.923" r="0.663"/>
			<circle fill="#587684" cx="69.929" cy="277.988" r="0.663"/>
			<circle fill="#587684" cx="66.877" cy="278.021" r="0.663"/>
			<circle fill="#587684" cx="63.824" cy="278.149" r="0.663"/>
			<circle fill="#587684" cx="60.772" cy="278.279" r="0.663"/>
			<circle fill="#587684" cx="57.72" cy="278.387" r="0.663"/>
			<circle fill="#587684" cx="54.699" cy="278.559" r="0.663"/>
			<path display="none" fill="none" stroke="#ED1C24" stroke-width="0.25" stroke-linecap="square" stroke-miterlimit="10" d="
				M36.25,289.375c0-1.5,99.812-1.5,99.812,0.25"/>
		</g>
	</g>
	<g id="Waist" display="inline">
		<g id="Layer_48">
			<g>
				<defs>
					<polygon id="SVGID_7_" points="151.181,267.099 150.662,279.588 53.206,279.522 52.235,267.681 					"/>
				</defs>
				<clipPath id="SVGID_8_">
					<use xlink:href="#SVGID_7_"  overflow="visible"/>
				</clipPath>
				
					<path clip-path="url(#SVGID_8_)" fill="none" stroke="#90A4AF" stroke-width="1.5" stroke-linecap="square" stroke-miterlimit="10" d="
					M49.906,271.758c0-1.554,103.345-1.554,103.345,0.258"/>
				
					<path clip-path="url(#SVGID_8_)" fill="none" stroke="#90A4AF" stroke-width="1.5" stroke-linecap="square" stroke-miterlimit="10" d="
					M49.841,273.893c0-1.553,103.345-1.553,103.345,0.259"/>
				
					<path clip-path="url(#SVGID_8_)" fill="none" stroke="#90A4AF" stroke-width="1.5" stroke-linecap="square" stroke-miterlimit="10" d="
					M49.841,276.028c0-1.553,103.345-1.553,103.345,0.259"/>
			</g>
		</g>
		<g>
			<path fill="#587684" d="M94.351,278.699c-0.717,0-1.3-0.583-1.3-1.3v-7.099c0-0.717,0.583-1.3,1.3-1.3h21.25
				c0.717,0,1.3,0.583,1.3,1.3v7.099c0,0.717-0.583,1.3-1.3,1.3H94.351z"/>
			<path fill="#90A4AF" d="M115.601,269.501c0.441,0,0.8,0.359,0.8,0.8v7.099c0,0.441-0.358,0.8-0.8,0.8h-21.25
				c-0.441,0-0.8-0.358-0.8-0.8v-7.099c0-0.441,0.358-0.8,0.8-0.8H115.601 M115.601,268.501h-21.25c-0.99,0-1.8,0.81-1.8,1.8v7.099
				c0,0.99,0.81,1.8,1.8,1.8h21.25c0.99,0,1.8-0.81,1.8-1.8v-7.099C117.4,269.311,116.591,268.501,115.601,268.501L115.601,268.501z
				"/>
		</g>
	</g>
	<g id="REFERENCE" opacity="0.7">
		
			<image display="inline" overflow="visible" width="333" height="500" id="_x38_KnhGs_2_" xlink:href="CF3490953B731B82.jpg"  transform="matrix(0.5819 0.0047 -0.0047 0.5819 10.7485 80.1216)">
		</image>
	</g>
</g>
<g id="Words_Train" display="none">
	<g id="Tagline_copy_2" display="inline">
		
			<text transform="matrix(1 0 0 1 20.7485 318.1328)" fill="#E3E4E5" font-family="'Knockout-HTF52-Cruiserweight'" font-size="6.5">INFORMATION ≠ DESIGN ≠ DEVELOPMENT</text>
	</g>
	<g id="Name__x26__Position_copy_2" display="inline">
		<rect x="-1.876" y="321.657" fill="#F2F2F3" width="180" height="56.5"/>
		<rect x="-6.011" y="368" fill="#ACAEB1" width="189.318" height="13.5"/>
		<rect x="-7.227" y="321.657" fill="#ACAEB1" width="189.318" height="13.5"/>
		<text transform="matrix(1 0 0 1 18.2031 353.1982)" fill="#C01E2E" font-family="'Knockout-HTF50-Welterweight'" font-size="20">BOB VAN DER CLAY</text>
		
			<line fill="none" stroke="#587684" stroke-width="2" stroke-miterlimit="10" x1="-1.876" y1="325.532" x2="178.124" y2="325.532"/>
		
			<line fill="none" stroke="#587684" stroke-width="2" stroke-miterlimit="10" x1="-1.876" y1="330.032" x2="178.123" y2="330.032"/>
		
			<line fill="none" stroke="#587684" stroke-width="2" stroke-miterlimit="10" x1="-1.527" y1="334.532" x2="178.473" y2="334.532"/>
		
			<line fill="none" stroke="#587684" stroke-width="2" stroke-miterlimit="10" x1="-1.702" y1="368.282" x2="178.299" y2="368.282"/>
		
			<line fill="none" stroke="#587684" stroke-width="2" stroke-miterlimit="10" x1="-1.702" y1="372.782" x2="178.298" y2="372.782"/>
		
			<line fill="none" stroke="#587684" stroke-width="2" stroke-miterlimit="10" x1="-1.352" y1="377.282" x2="178.647" y2="377.282"/>
		
			<text transform="matrix(1 0 0 1 19.1973 363.25)" fill="#587684" font-family="'Knockout-HTF49-Liteweight'" font-size="10" letter-spacing="1">PARTNER • CHIEF TECHNOLOGIST</text>
		<g>
			<path fill="#ACAEB1" d="M88,333.532c-3.17,0-5.75-2.579-5.75-5.75s2.58-5.75,5.75-5.75s5.75,2.579,5.75,5.75
				S91.17,333.532,88,333.532z"/>
			<path fill="#587684" d="M88,323.032c2.62,0,4.75,2.131,4.75,4.75s-2.131,4.75-4.75,4.75c-2.619,0-4.75-2.131-4.75-4.75
				S85.38,323.032,88,323.032 M88,321.032c-3.728,0-6.75,3.022-6.75,6.75s3.022,6.75,6.75,6.75s6.75-3.022,6.75-6.75
				S91.728,321.032,88,321.032L88,321.032z"/>
		</g>
		<g>
			<path fill="#ACAEB1" d="M88.298,380.532c-3.17,0-5.75-2.579-5.75-5.75s2.58-5.75,5.75-5.75s5.75,2.579,5.75,5.75
				S91.469,380.532,88.298,380.532z"/>
			<path fill="#587684" d="M88.298,370.032c2.62,0,4.75,2.131,4.75,4.75s-2.131,4.75-4.75,4.75c-2.619,0-4.75-2.131-4.75-4.75
				S85.679,370.032,88.298,370.032 M88.298,368.032c-3.728,0-6.75,3.022-6.75,6.75s3.022,6.75,6.75,6.75s6.75-3.022,6.75-6.75
				S92.026,368.032,88.298,368.032L88.298,368.032z"/>
		</g>
	</g>
	<g id="Contact_copy_2" display="inline">
		<rect x="-1.702" y="380.748" fill="#587684" width="180" height="33.668"/>
		<text transform="matrix(1 0 0 1 20.0967 389.5752)" display="none"><tspan x="0" y="0" display="inline" fill="#E7E1D9" font-family="'GUIDesignIcons'" font-size="6.3">Û</tspan><tspan x="4.706" y="0" display="inline" fill="#E7E1D9" font-family="'Knockout-HTF49-Liteweight'" font-size="6.3">HIGH90.COM  </tspan><tspan x="40.156" y="0" display="inline" fill="#E7E1D9" font-family="'ZapfDingbatsITC'" font-size="6.3">✉</tspan><tspan x="45.132" y="0" display="inline" fill="#E7E1D9" font-family="'Knockout-HTF49-Liteweight'" font-size="6.3">BOB@HIGH90.COM  </tspan><tspan x="95.387" y="0" display="inline" fill="#E7E1D9" font-family="'ZapfDingbatsITC'" font-size="6.3">☎</tspan><tspan x="100.548" y="0" display="inline" fill="#E7E1D9" font-family="'Knockout-HTF49-Liteweight'" font-size="6.3">757.744.9090</tspan></text>
		<text transform="matrix(1 0 0 1 20.7695 390.5752)" fill="#E3E4E5" font-family="'Knockout-HTF49-Liteweight'" font-size="8">HIGH90.COM • BOB@HIGH90.COM • 757.332.0827</text>
	</g>
</g>
<g id="Building_1_" display="none">
	<g id="Backdrop" display="inline">
		<rect x="-2" y="126" fill="#DBD0C4" width="180" height="288"/>
	</g>
	<g id="Sunbeam" display="inline">
		<polyline fill="#E7E1D9" points="88.124,288.157 -1.876,288.157 -1.876,270.157 88.124,288.157 		"/>
		<polyline fill="#E7E1D9" points="88.125,288.157 -43.781,240.147 -34.18,213.767 88.125,288.157 		"/>
		<polyline fill="#E7E1D9" points="88.125,288.157 -19.406,197.928 -1.36,176.422 88.125,288.157 		"/>
		<polyline fill="#E7E1D9" points="88.125,288.157 -5.248,126.428 27.097,107.754 88.125,288.157 		"/>
		<polyline fill="#E7E1D9" points="88.251,288.157 59.209,123.439 92.152,117.63 88.251,288.157 		"/>
		<polyline fill="#E7E1D9" points="88.124,288.157 118.244,117.342 152.407,123.366 88.124,288.157 		"/>
		<polyline fill="#E7E1D9" points="88.124,288.157 178.632,131.393 209.985,149.493 88.124,288.157 		"/>
		<polyline fill="#E7E1D9" points="88.124,288.157 208.687,186.993 228.919,211.104 88.124,288.157 		"/>
		<polyline fill="#E7E1D9" points="88.124,287.944 236.016,234.116 246.781,263.693 88.124,287.944 		"/>
		<polyline fill="#E7E1D9" points="88.124,288.158 245.506,288.157 245.507,319.633 88.124,288.158 		"/>
	</g>
	<g id="Building" display="inline">
		<polygon fill="#695C4F" points="88,153 88,178.833 79,183.375 79,195.375 74.5,200.083 74.5,275.417 106,275.417 106,198 
			97,193.5 97,183.375 92.5,181.125 		"/>
		<polygon fill="#B5ACA5" points="88,263.157 -2,299.157 -2,335.157 88,335.157 		"/>
		<polygon fill="#B5ACA5" points="70,198 70,288 88,288 88,189 		"/>
		<polygon fill="#695C4F" points="178.474,332.905 178.213,299.157 88,263.157 88.124,278.692 -1.527,314.905 -1.527,332.905 		"/>
		<text transform="matrix(1.0731 -0.4851 0 1 73.4087 215.3784)"><tspan x="0" y="0" fill="#FFFFFF" font-family="'Knockout-HTF50-Welterweight'" font-size="19.3257">H</tspan><tspan x="2.976" y="16.104" fill="#FFFFFF" font-family="'Knockout-HTF50-Welterweight'" font-size="19.3257">I</tspan><tspan x="0.299" y="32.209" fill="#FFFFFF" font-family="'Knockout-HTF50-Welterweight'" font-size="19.3257">G</tspan><tspan x="0" y="48.314" fill="#FFFFFF" font-family="'Knockout-HTF50-Welterweight'" font-size="19.3257">H</tspan></text>
		
			<line fill="none" stroke="#B5ACA5" stroke-width="3" stroke-miterlimit="10" x1="-1.637" y1="309.032" x2="178.362" y2="309.032"/>
	</g>
	<g id="Octobuilding">
		<polygon display="inline" fill="#695C4F" points="88,153 88,178.833 79,183.375 79,195.375 74.5,200.833 74.5,276.167 
			106,275.417 106,198 97,193.5 97,183.375 92.5,181.125 		"/>
		<polygon display="inline" fill="#B5ACA5" points="70,198 70,288 79.124,288.157 79,193.5 		"/>
		<polygon display="inline" fill="#B5ACA5" points="79,266.757 -1.875,299.157 -1.875,335.157 79,335.156 		"/>
		<polygon display="inline" fill="#695C4F" points="178.474,332.905 178.337,296.905 88.124,260.905 88.124,278.692 -1.527,314.905 
			-1.527,332.905 		"/>
		
			<line display="inline" fill="none" stroke="#B5ACA5" stroke-width="3" stroke-miterlimit="10" x1="-1.637" y1="309.032" x2="178.362" y2="309.032"/>
		<rect x="79" y="193.5" display="inline" fill="#9A8E82" width="18" height="94.444"/>
		<text transform="matrix(1 0 0 1 82.6411 212.5005)" display="inline"><tspan x="0" y="0" fill="#FFFFFF" font-family="'Knockout-HTF51-Middleweight'" font-size="18">H</tspan><tspan x="3.366" y="16" fill="#FFFFFF" font-family="'Knockout-HTF51-Middleweight'" font-size="18">I</tspan><tspan x="0.342" y="32" fill="#FFFFFF" font-family="'Knockout-HTF51-Middleweight'" font-size="18">G</tspan><tspan x="0" y="48" fill="#FFFFFF" font-family="'Knockout-HTF51-Middleweight'" font-size="18">H</tspan></text>
	</g>
	<g id="Building_Cap" display="inline">
		<polygon fill="#B5ACA5" points="79,192.375 88,187.875 88,186.75 79,191.25 		"/>
		<polygon fill="#B5ACA5" points="79,190.125 88,185.625 88,184.5 79,189 		"/>
		<polygon fill="#B5ACA5" points="79,187.875 88,183.375 88,182.25 79,186.75 		"/>
		<polygon fill="#B5ACA5" points="79,184.5 79,185.625 88,181.083 88,180 		"/>
		<polygon fill="#B5ACA5" points="88.016,178.875 83.5,181.109 88,153 		"/>
	</g>
	<g id="Big_90" display="inline">
		<g>
			<path fill="#C01E2E" d="M88.124,307.157c-10.477,0-19-8.523-19-19s8.523-19,19-19s19,8.523,19,19S98.601,307.157,88.124,307.157z
				"/>
			<path fill="#B5ACA5" d="M88.124,270.157c9.941,0,18,8.059,18,18s-8.059,18-18,18c-9.941,0-18-8.059-18-18
				S78.183,270.157,88.124,270.157 M88.124,268.157c-11.028,0-20,8.972-20,20s8.972,20,20,20c11.028,0,20-8.972,20-20
				S99.152,268.157,88.124,268.157L88.124,268.157z"/>
		</g>
		<text transform="matrix(1 0 0 1 73.124 298.2217)" fill="#FFFFFF" font-family="'Knockout-HTF50-Welterweight'" font-size="31">90</text>
	</g>
</g>
<g id="Words_Building" display="none">
	<g id="Tagline" display="inline">
		
			<text transform="matrix(1 0 0 1 20.7485 318.1328)" fill="#DBD0C4" font-family="'Knockout-HTF52-Cruiserweight'" font-size="6.5">INFORMATION ≠ DESIGN ≠ DEVELOPMENT</text>
	</g>
	<g id="Name__x26__Position" display="inline">
		<rect x="-1.876" y="321.657" fill="#DBD0C4" width="180" height="56.5"/>
		<rect x="-6.011" y="368" fill="#B5ACA5" width="189.318" height="13.5"/>
		<rect x="-7.227" y="321.657" fill="#B5ACA5" width="189.318" height="13.5"/>
		<text transform="matrix(1 0 0 1 18.2031 353.1982)" fill="#C01E2E" font-family="'Knockout-HTF50-Welterweight'" font-size="20">BOB VAN DER CLAY</text>
		
			<line fill="none" stroke="#695C4F" stroke-width="2" stroke-miterlimit="10" x1="-1.876" y1="325.532" x2="178.124" y2="325.532"/>
		
			<line fill="none" stroke="#695C4F" stroke-width="2" stroke-miterlimit="10" x1="-1.876" y1="330.032" x2="178.123" y2="330.032"/>
		
			<line fill="none" stroke="#695C4F" stroke-width="2" stroke-miterlimit="10" x1="-1.527" y1="334.532" x2="178.473" y2="334.532"/>
		
			<line fill="none" stroke="#695C4F" stroke-width="2" stroke-miterlimit="10" x1="-1.702" y1="368.282" x2="178.299" y2="368.282"/>
		
			<line fill="none" stroke="#695C4F" stroke-width="2" stroke-miterlimit="10" x1="-1.702" y1="372.782" x2="178.298" y2="372.782"/>
		
			<line fill="none" stroke="#695C4F" stroke-width="2" stroke-miterlimit="10" x1="-1.352" y1="377.282" x2="178.647" y2="377.282"/>
		
			<text transform="matrix(1 0 0 1 19.1973 363.25)" fill="#695C4F" font-family="'Knockout-HTF49-Liteweight'" font-size="10" letter-spacing="1">PARTNER • CHIEF TECHNOLOGIST</text>
		<g>
			<path fill="#B5ACA5" d="M88,333.532c-3.17,0-5.75-2.579-5.75-5.75s2.58-5.75,5.75-5.75s5.75,2.579,5.75,5.75
				S91.17,333.532,88,333.532z"/>
			<path fill="#695C4F" d="M88,323.032c2.62,0,4.75,2.131,4.75,4.75s-2.131,4.75-4.75,4.75c-2.619,0-4.75-2.131-4.75-4.75
				S85.38,323.032,88,323.032 M88,321.032c-3.728,0-6.75,3.022-6.75,6.75s3.022,6.75,6.75,6.75s6.75-3.022,6.75-6.75
				S91.728,321.032,88,321.032L88,321.032z"/>
		</g>
		<g>
			<path fill="#B5ACA5" d="M88.298,380.532c-3.17,0-5.75-2.579-5.75-5.75s2.58-5.75,5.75-5.75s5.75,2.579,5.75,5.75
				S91.469,380.532,88.298,380.532z"/>
			<path fill="#695C4F" d="M88.298,370.032c2.62,0,4.75,2.131,4.75,4.75s-2.131,4.75-4.75,4.75c-2.619,0-4.75-2.131-4.75-4.75
				S85.679,370.032,88.298,370.032 M88.298,368.032c-3.728,0-6.75,3.022-6.75,6.75s3.022,6.75,6.75,6.75s6.75-3.022,6.75-6.75
				S92.026,368.032,88.298,368.032L88.298,368.032z"/>
		</g>
	</g>
	<g id="Contact" display="inline">
		<rect x="-1.702" y="380.748" fill="#695C4F" width="180" height="33.668"/>
		<text transform="matrix(1 0 0 1 20.0967 389.5752)" display="none"><tspan x="0" y="0" display="inline" fill="#E7E1D9" font-family="'GUIDesignIcons'" font-size="6.3">Û</tspan><tspan x="4.706" y="0" display="inline" fill="#E7E1D9" font-family="'Knockout-HTF49-Liteweight'" font-size="6.3">HIGH90.COM  </tspan><tspan x="40.156" y="0" display="inline" fill="#E7E1D9" font-family="'ZapfDingbatsITC'" font-size="6.3">✉</tspan><tspan x="45.132" y="0" display="inline" fill="#E7E1D9" font-family="'Knockout-HTF49-Liteweight'" font-size="6.3">BOB@HIGH90.COM  </tspan><tspan x="95.387" y="0" display="inline" fill="#E7E1D9" font-family="'ZapfDingbatsITC'" font-size="6.3">☎</tspan><tspan x="100.548" y="0" display="inline" fill="#E7E1D9" font-family="'Knockout-HTF49-Liteweight'" font-size="6.3">757.744.9090</tspan></text>
		<text transform="matrix(1 0 0 1 20.7695 390.5752)" fill="#E7E1D9" font-family="'Knockout-HTF49-Liteweight'" font-size="8">HIGH90.COM • BOB@HIGH90.COM • 757.332.0827</text>
	</g>
</g>
</svg>
