<?xml version="1.0" encoding="utf-8"?>
<!-- Generator: Adobe Illustrator 16.0.4, SVG Export Plug-In . SVG Version: 6.00 Build 0)  -->
<!DOCTYPE svg PUBLIC "-//W3C//DTD SVG 1.1//EN" "http://www.w3.org/Graphics/SVG/1.1/DTD/svg11.dtd">
<svg version="1.1" xmlns="http://www.w3.org/2000/svg" xmlns:xlink="http://www.w3.org/1999/xlink" x="0px" y="0px" width="850px"
	 height="850px" viewBox="0 0 850 850" enable-background="new 0 0 850 850" xml:space="preserve">
<g id="Mindful_Circles">
	<circle id="Gray_Circle" fill="#F2F2F2" cx="425" cy="425" r="403"/>
	<circle id="Red_Circle" opacity="0.3" fill="#FF0000" cx="276" cy="336" r="230"/>
	<circle id="Green_Circle" opacity="0.3" fill="#00FF00" cx="425" cy="598" r="230"/>
	<circle id="Blue_Circle" opacity="0.3" fill="#0000FF" cx="574" cy="336" r="230"/>
	<path id="Intersection" d="M501.572,381.073C477.617,372.616,451.85,368,425,368s-52.617,4.616-76.572,13.073
		c10.28,51.734,37.91,97.21,76.572,130.125C463.663,478.283,491.293,432.807,501.572,381.073z"/>
	<rect id="Bit" x="419" y="387" fill="#FFFFFF" width="11" height="85"/>
	<text transform="matrix(1 0 0 1 195 373.9995)" fill="#555555" font-family="'Futura-Medium'" font-size="120">M</text>
	<text transform="matrix(1 0 0 1 395.5278 666.666)" fill="#555555" font-family="'Futura-Medium'" font-size="120">T</text>
	<text transform="matrix(1 0 0 1 556 373.9995)" fill="#555555" font-family="'Futura-Medium'" font-size="120">D</text>
</g>
<g id="Alignment" display="none">
	
		<circle display="inline" fill="none" stroke="#000000" stroke-width="2" stroke-miterlimit="10" cx="424.5" cy="429.5" r="199.167"/>
	
		<line display="inline" fill="none" stroke="#000000" stroke-width="2" stroke-miterlimit="10" x1="424.5" y1="429.5" x2="424.5" y2="828"/>
	
		<line display="inline" fill="none" stroke="#000000" stroke-width="2" stroke-miterlimit="10" x1="424.501" y1="429.5" x2="79.39" y2="230.25"/>
	
		<line display="inline" fill="none" stroke="#000000" stroke-width="2" stroke-miterlimit="10" x1="424.5" y1="429.5" x2="769.611" y2="230.25"/>
</g>
</svg>
